<svg xmlns="http://www.w3.org/2000/svg" width="179" height="41" fill="none" viewBox="0 0 179 41">
  <g clip-path="url(#a)">
    <path fill="#f25c54" fill-rule="evenodd" d="M13.715.516c-2.257 0-4.42.896-6.016 2.492L0 10.707v3.524c0 2.49 1.07 4.73 2.774 6.285A8.5 8.5 0 0 0 0 26.802v3.524l7.699 7.698A8.507 8.507 0 0 0 20 37.742a8.51 8.51 0 0 0 12.301.282L40 30.326v-3.524c0-2.49-1.07-4.73-2.774-6.286A8.5 8.5 0 0 0 40 14.231v-3.524l-7.699-7.7A8.51 8.51 0 0 0 20 3.29 8.5 8.5 0 0 0 13.715.516m12.044 20a9 9 0 0 1-.282-.27L20 14.77l-5.477 5.477a9 9 0 0 1-.282.27q.144.13.282.269L20 26.262l5.477-5.476q.138-.139.282-.27m-3.537 9.81v1.682a4.063 4.063 0 0 0 6.936 2.874l6.398-6.397v-1.683a4.063 4.063 0 0 0-6.937-2.874zm-4.444 0-6.397-6.398a4.063 4.063 0 0 0-6.937 2.873v1.684l6.397 6.397a4.063 4.063 0 0 0 6.937-2.873zm0-21.302v1.683l-6.397 6.397a4.063 4.063 0 0 1-6.937-2.873v-1.683l6.397-6.397a4.063 4.063 0 0 1 6.937 2.873m10.841 8.08-6.397-6.397V9.024a4.063 4.063 0 0 1 6.936-2.873l6.398 6.397v1.683a4.063 4.063 0 0 1-6.937 2.873" clip-rule="evenodd"/>
  </g>
  <path fill="#fcfcfc" d="M54.318 29V12.2h11.484v3.096H57.87v3.6h6.72v2.868h-6.72v4.104h8.028V29zm12.818.024 4.368-6.036-4.14-6.108h4.428l2.148 3.684 2.088-3.684h4.32l-4.02 6.036L80.66 29h-4.488l-2.352-3.696-2.388 3.66zm20.293.336q-1.944 0-3.072-1.092-1.116-1.104-1.116-3.324V13.388h3.504v3.492h3.012v2.808h-3.012v4.62q0 1.068.444 1.5t1.188.432q.384 0 .744-.084.372-.096.684-.264l.492 2.76q-.54.3-1.296.504a6 6 0 0 1-1.572.204m-6.648-9.672V16.88h2.808v2.808H80.78Zm17.126 9.672q-1.98 0-3.48-.804a5.85 5.85 0 0 1-2.34-2.244q-.84-1.44-.84-3.372 0-1.404.48-2.58a6.05 6.05 0 0 1 1.368-2.028A6.2 6.2 0 0 1 95.171 17q1.2-.48 2.628-.48 1.572 0 2.784.552a5.4 5.4 0 0 1 2.028 1.548q.804.984 1.116 2.316.324 1.332.06 2.892h-9.288q0 .84.432 1.464.444.624 1.236.984.804.348 1.872.348 1.056 0 2.016-.288a6.4 6.4 0 0 0 1.812-.876l1.164 2.4q-.576.444-1.44.792-.864.336-1.836.516a9.4 9.4 0 0 1-1.848.192m-3.204-7.944h5.724q-.036-1.068-.756-1.692-.708-.624-1.956-.624t-2.076.624q-.816.624-.936 1.692M105.83 29V16.88h3.504v1.368q.696-.912 1.644-1.32a5.1 5.1 0 0 1 2.004-.408q1.692 0 2.784.672 1.104.66 1.632 1.716.54 1.056.54 2.22V29h-3.504v-6.78q0-1.152-.648-1.836-.636-.684-1.848-.684-.768 0-1.356.348-.588.336-.924.948-.324.612-.324 1.416V29zm19.29.348q-1.62 0-2.988-.42-1.368-.432-2.34-1.176l1.14-2.448a8.3 8.3 0 0 0 2.052 1.02q1.104.36 2.124.36 1.008 0 1.548-.3.552-.312.552-.888 0-.516-.492-.756-.48-.252-1.872-.54-2.4-.432-3.504-1.356-1.104-.936-1.104-2.568 0-1.152.636-2.028.648-.876 1.776-1.356 1.128-.492 2.592-.492 1.44 0 2.712.396 1.284.384 2.196 1.08l-1.104 2.46a5.3 5.3 0 0 0-1.104-.672 6.4 6.4 0 0 0-1.296-.444 5.4 5.4 0 0 0-1.32-.168q-.876 0-1.416.3-.54.288-.54.816t.492.78 1.836.552q2.508.528 3.564 1.404 1.068.864 1.068 2.436 0 1.212-.66 2.112-.648.9-1.824 1.404-1.164.492-2.724.492m7.413-.348V16.88h3.504V29zm1.752-14.04a2.26 2.26 0 0 1-1.512-.54q-.636-.552-.636-1.464 0-.924.636-1.464a2.23 2.23 0 0 1 1.512-.552 2.23 2.23 0 0 1 1.512.552q.636.54.636 1.464 0 .912-.636 1.464a2.26 2.26 0 0 1-1.512.54m10.362 14.4q-1.956 0-3.468-.876a6.5 6.5 0 0 1-2.376-2.328 6.3 6.3 0 0 1-.852-3.216q0-1.284.492-2.436a6.3 6.3 0 0 1 1.392-2.052q.9-.9 2.124-1.416t2.688-.516q1.956 0 3.456.876a6.4 6.4 0 0 1 2.364 2.34q.864 1.452.864 3.204 0 1.272-.492 2.436a6.4 6.4 0 0 1-1.392 2.064 6.6 6.6 0 0 1-2.112 1.404q-1.224.516-2.688.516m0-3.036q.924 0 1.656-.408.732-.42 1.152-1.176.42-.768.42-1.8 0-1.044-.42-1.8a2.85 2.85 0 0 0-1.14-1.164q-.732-.42-1.668-.42t-1.68.42q-.732.408-1.152 1.164-.408.756-.408 1.8c0 1.044.14 1.296.42 1.8q.42.756 1.152 1.176.732.408 1.668.408M153.235 29V16.88h3.504v1.368q.696-.912 1.644-1.32a5.1 5.1 0 0 1 2.004-.408q1.692 0 2.784.672 1.104.66 1.632 1.716.54 1.056.54 2.22V29h-3.504v-6.78q0-1.152-.648-1.836-.636-.684-1.848-.684-.768 0-1.356.348-.588.336-.924.948-.324.612-.324 1.416V29zm19.291.348q-1.62 0-2.988-.42-1.368-.432-2.34-1.176l1.14-2.448a8.3 8.3 0 0 0 2.052 1.02q1.104.36 2.124.36 1.008 0 1.548-.3.552-.312.552-.888 0-.516-.492-.756-.48-.252-1.872-.54-2.4-.432-3.504-1.356-1.104-.936-1.104-2.568 0-1.152.636-2.028.648-.876 1.776-1.356 1.128-.492 2.592-.492 1.44 0 2.712.396 1.284.384 2.196 1.08l-1.104 2.46a5.3 5.3 0 0 0-1.104-.672 6.4 6.4 0 0 0-1.296-.444 5.4 5.4 0 0 0-1.32-.168q-.876 0-1.416.3-.54.288-.54.816t.492.78 1.836.552q2.508.528 3.564 1.404 1.068.864 1.068 2.436 0 1.212-.66 2.112-.648.9-1.824 1.404-1.164.492-2.724.492"/>
  <defs>
    <clipPath id="a">
      <path fill="#fff" d="M0 0h40v41H0z"/>
    </clipPath>
  </defs>
</svg>
